HIERARCHY
ROOT joint_Root
{
	OFFSET 0.0 0.0 0.0
	CHANNELS 6 Xposition Yposition Zposition Zrotation Xrotation Yrotation 
	JOINT Hips
	{
		OFFSET 4.5925 91.4895 -427.239
		CHANNELS 6 Xposition Yposition Zposition Zrotation Xrotation Yrotation 
		JOINT Spine
		{
			OFFSET 15.7357 0.0 0.0
			CHANNELS 6 Xposition Yposition Zposition Zrotation Xrotation Yrotation 
			JOINT Chest
			{
				OFFSET 8.98455 -0.406207 0.0
				CHANNELS 6 Xposition Yposition Zposition Zrotation Xrotation Yrotation 
				JOINT Neck
				{
					OFFSET 16.3773 0.0 0.0
					CHANNELS 6 Xposition Yposition Zposition Zrotation Xrotation Yrotation 
					JOINT Head
					{
						OFFSET 6.45672 0.0 0.0
						CHANNELS 6 Xposition Yposition Zposition Zrotation Xrotation Yrotation 
						End Site
						{
							OFFSET 0.0 0.0 0.0
						}
					}
				}
				JOINT Shoulder_L
				{
					OFFSET 12.9942 -0.242716 4.98039
					CHANNELS 6 Xposition Yposition Zposition Zrotation Xrotation Yrotation 
					JOINT UpperArm_L
					{
						OFFSET 5.34809 0.0 0.0
						CHANNELS 6 Xposition Yposition Zposition Zrotation Xrotation Yrotation 
						JOINT LowerArm_L
						{
							OFFSET 24.3286 1.87007e-05 0.0
							CHANNELS 6 Xposition Yposition Zposition Zrotation Xrotation Yrotation 
							JOINT Hand_L
							{
								OFFSET 22.2916 0.0 0.0
								CHANNELS 6 Xposition Yposition Zposition Zrotation Xrotation Yrotation 
								End Site
								{
									OFFSET 0.0 0.0 0.0
								}
							}
						}
					}
				}
				JOINT Shoulder_R
				{
					OFFSET 12.9945 -0.242716 -4.98039
					CHANNELS 6 Xposition Yposition Zposition Zrotation Xrotation Yrotation 
					JOINT UpperArm_R
					{
						OFFSET -5.34813 0.0 0.0
						CHANNELS 6 Xposition Yposition Zposition Zrotation Xrotation Yrotation 
						JOINT LowerArm_R
						{
							OFFSET -24.3289 0.000322201 0.0
							CHANNELS 6 Xposition Yposition Zposition Zrotation Xrotation Yrotation 
							JOINT Hand_R
							{
								OFFSET -22.2915 -0.000108084 0.0
								CHANNELS 6 Xposition Yposition Zposition Zrotation Xrotation Yrotation 
								End Site
								{
									OFFSET 0.0 0.0 0.0
								}
							}
						}
					}
				}
			}
		}
		JOINT UpperLeg_L
		{
			OFFSET -2.19248 -6.46944 0.0
			CHANNELS 6 Xposition Yposition Zposition Zrotation Xrotation Yrotation 
			JOINT LowerLeg_L
			{
				OFFSET 39.0811 0.0 -1.23785e-05
				CHANNELS 6 Xposition Yposition Zposition Zrotation Xrotation Yrotation 
				JOINT Foot_L
				{
					OFFSET 40.9854 0.0 -1.26872e-05
					CHANNELS 6 Xposition Yposition Zposition Zrotation Xrotation Yrotation 
					JOINT Toes_L
					{
						OFFSET 11.7543 0.0 0.0
						CHANNELS 6 Xposition Yposition Zposition Zrotation Xrotation Yrotation 
						End Site
						{
							OFFSET 0.0 0.0 0.0
						}
					}
				}
			}
		}
		JOINT UpperLeg_R
		{
			OFFSET -2.19251 6.46944 0.0
			CHANNELS 6 Xposition Yposition Zposition Zrotation Xrotation Yrotation 
			JOINT LowerLeg_R
			{
				OFFSET -39.0811 -0.00228153 -0.0401928
				CHANNELS 6 Xposition Yposition Zposition Zrotation Xrotation Yrotation 
				JOINT Foot_R
				{
					OFFSET -40.9854 0.0 0.0
					CHANNELS 6 Xposition Yposition Zposition Zrotation Xrotation Yrotation 
					JOINT Toes_R
					{
						OFFSET -11.7543 0.0 0.0
						CHANNELS 6 Xposition Yposition Zposition Zrotation Xrotation Yrotation 
						End Site
						{
							OFFSET 0.0 0.0 0.0
						}
					}
				}
			}
		}
	}
}
MOTION
Frames:	6
Frame Time:	0.0333333
0.000000 0.000000 0.000000 0.000000 0.000000 -0.000000 -2.629620 92.506100 -3.492380 88.879200 1.037030 4.598090 15.735700 0.000005 -0.000001 76.293700 86.732700 -76.301800 8.984550 -0.406207 -0.000000 -1.417800 -1.547340 -0.035291 16.377300 -0.000001 -0.000001 7.170240 -2.420820 1.158430 6.456720 -0.000001 -0.000000 4.518880 -2.115600 1.340840 12.994200 -0.242716 4.980390 -83.628100 -11.987800 -61.735400 5.348090 -0.000007 -0.000001 -66.577600 -59.582600 -107.457000 24.328600 0.000019 0.000005 9.924700 8.085910 -51.204500 22.291600 -0.000001 0.000005 17.279800 5.347800 -1.311360 12.994500 -0.242716 -4.980390 94.293600 -10.130000 -66.884200 -5.348130 -0.000001 -0.000004 -44.211300 -64.480700 -85.268700 -24.328900 0.000322 -0.000009 -4.538140 -3.442720 -52.882200 -22.291500 -0.000108 -0.000004 22.524600 5.554400 -8.915500 -2.192480 -6.469440 -0.000000 -174.215000 -11.547900 -4.445590 39.081100 -0.000007 -0.000012 -0.062344 0.156429 21.729700 40.985400 -0.000006 -0.000013 -0.838963 9.327720 -62.550800 11.754300 -0.000000 0.000003 -0.000129 -0.001277 -16.626300 -2.192510 6.469440 -0.000001 178.037000 26.136300 177.788000 -39.081100 -0.002282 -0.040193 -0.022079 0.067665 20.574900 -40.985400 0.000008 0.000006 4.972730 15.654400 -64.387700 -11.754300 -0.000006 -0.000006 -0.002527 -0.035127 -18.001500
0.000000 0.000000 0.000000 0.000000 0.000000 -0.000000 -2.538880 92.528400 -3.619470 88.906500 0.915632 4.539480 15.735700 0.000005 -0.000001 76.405400 86.681100 -76.374400 8.984550 -0.406207 -0.000000 -1.313930 -1.562320 0.044074 16.377300 -0.000001 -0.000001 7.119380 -2.394360 1.088660 6.456720 -0.000001 -0.000000 4.368610 -2.002360 1.265260 12.994200 -0.242716 4.980390 -83.633700 -11.904000 -61.591200 5.348090 -0.000007 -0.000001 -66.791200 -59.942300 -107.776000 24.328600 0.000019 0.000005 9.672110 7.895770 -51.130400 22.291600 -0.000001 0.000005 17.189400 5.347100 -1.290460 12.994500 -0.242716 -4.980390 94.295700 -10.118900 -66.851100 -5.348130 -0.000001 -0.000004 -43.961100 -64.777400 -85.553600 -24.328900 0.000322 -0.000009 -4.857590 -3.670630 -53.001400 -22.291500 -0.000108 -0.000004 22.121700 5.549850 -8.699320 -2.192480 -6.469440 -0.000000 -174.315000 -11.749200 -4.506570 39.081100 -0.000007 -0.000012 -0.059190 0.149469 21.603600 40.985400 -0.000006 -0.000013 -0.766546 9.401840 -62.423200 11.754300 -0.000000 0.000003 -0.000120 -0.001198 -16.623300 -2.192510 6.469440 -0.000001 178.023000 25.999400 177.661000 -39.081100 -0.002282 -0.040193 -0.022272 0.068610 20.456500 -40.985400 0.000008 0.000006 4.773520 15.682600 -64.157900 -11.754300 -0.000006 -0.000006 -0.002457 -0.034301 -17.967900
0.000000 0.000000 0.000000 0.000000 0.000000 -0.000000 -2.450480 92.539400 -3.727400 88.920300 0.802372 4.499240 15.735700 0.000005 -0.000001 76.390600 86.626000 -76.309600 8.984550 -0.406207 -0.000000 -1.206490 -1.593810 0.145205 16.377300 -0.000001 -0.000001 7.133310 -2.388970 1.061400 6.456720 -0.000001 -0.000000 4.253370 -1.870700 1.099980 12.994200 -0.242716 4.980390 -83.688900 -11.765800 -61.525400 5.348090 -0.000007 -0.000001 -66.629200 -60.175100 -107.295000 24.328600 0.000019 0.000005 9.322580 7.567560 -51.262200 22.291600 -0.000001 0.000005 17.288300 5.350920 -1.404840 12.994500 -0.242716 -4.980390 94.285900 -10.095100 -66.850600 -5.348130 -0.000001 -0.000004 -43.324000 -64.830000 -85.149200 -24.328900 0.000322 -0.000009 -5.403050 -3.981750 -53.708700 -22.291500 -0.000108 -0.000004 21.951500 5.544950 -8.470080 -2.192480 -6.469440 -0.000000 -174.418000 -11.871100 -4.599280 39.081100 -0.000007 -0.000012 -0.054628 0.138123 21.579100 40.985400 -0.000006 -0.000013 -0.698394 9.353680 -62.351200 11.754300 -0.000000 0.000003 -0.000112 -0.001136 -16.621000 -2.192510 6.469440 -0.000001 178.022000 25.792900 177.537000 -39.081100 -0.002282 -0.040193 -0.023066 0.070911 20.410500 -40.985400 0.000008 0.000006 4.597890 15.574000 -63.988300 -11.754300 -0.000006 -0.000006 -0.002715 -0.037336 -18.091400
0.000000 0.000000 0.000000 0.000000 0.000000 -0.000000 -2.378550 92.555800 -3.806680 88.945300 0.710797 4.467230 15.735700 0.000005 -0.000001 76.132500 86.563000 -76.013000 8.984550 -0.406207 -0.000000 -1.090660 -1.656440 0.223064 16.377300 -0.000001 -0.000001 7.117840 -2.359350 1.061800 6.456720 -0.000001 -0.000000 4.189270 -1.706700 1.006050 12.994200 -0.242716 4.980390 -83.828300 -11.520700 -61.567600 5.348090 -0.000007 -0.000001 -65.993000 -60.266800 -105.803000 24.328600 0.000019 0.000005 9.212950 7.283100 -51.988900 22.291600 -0.000001 0.000005 17.468100 5.349650 -1.366790 12.994500 -0.242716 -4.980390 94.204400 -9.899470 -66.848500 -5.348130 -0.000001 -0.000004 -41.989500 -64.419100 -83.758000 -24.328900 0.000322 -0.000009 -6.331610 -4.459300 -54.974900 -22.291500 -0.000108 -0.000004 21.849900 5.539640 -8.226470 -2.192480 -6.469440 -0.000000 -174.507000 -12.012700 -4.619080 39.081100 -0.000007 -0.000012 -0.051745 0.131482 21.482200 40.985400 -0.000006 -0.000013 -0.637443 9.380800 -62.269500 11.754300 -0.000000 0.000003 -0.000116 -0.001169 -16.622300 -2.192510 6.469440 -0.000001 177.981000 25.628800 177.493000 -39.081100 -0.002282 -0.040193 -0.024000 0.073960 20.274500 -40.985400 0.000008 0.000006 4.255240 15.554900 -63.749400 -11.754300 -0.000006 -0.000006 -0.002783 -0.038127 -18.123600
0.000000 0.000000 0.000000 0.000000 0.000000 -0.000000 -2.309410 92.566700 -3.881970 88.949800 0.592381 4.405610 15.735700 0.000005 -0.000001 75.903600 86.506400 -75.749200 8.984550 -0.406207 -0.000000 -0.987006 -1.713180 0.293849 16.377300 -0.000001 -0.000001 7.057650 -2.360490 1.067720 6.456720 -0.000001 -0.000000 4.078100 -1.631220 1.005130 12.994200 -0.242716 4.980390 -84.048600 -11.138300 -61.646800 5.348090 -0.000007 -0.000001 -64.600600 -60.144900 -103.019000 24.328600 0.000019 0.000005 9.057020 6.781370 -53.470300 22.291600 -0.000001 0.000005 17.678200 5.353000 -1.467460 12.994500 -0.242716 -4.980390 94.039500 -9.538740 -66.918600 -5.348130 -0.000001 -0.000004 -39.828500 -63.432400 -81.070300 -24.328900 0.000322 -0.000009 -7.145340 -4.714710 -56.743600 -22.291500 -0.000108 -0.000004 21.914000 5.534530 -7.996240 -2.192480 -6.469440 -0.000000 -174.593000 -12.044300 -4.709160 39.081100 -0.000007 -0.000012 -0.047629 0.121243 21.446800 40.985400 -0.000006 -0.000013 -0.606968 9.238090 -62.210100 11.754300 -0.000000 0.000003 -0.000111 -0.001128 -16.620700 -2.192510 6.469440 -0.000001 177.979000 25.490400 177.401000 -39.081100 -0.002282 -0.040193 -0.026223 0.080419 20.172500 -40.985400 0.000008 0.000006 3.977070 15.570000 -63.548500 -11.754300 -0.000006 -0.000006 -0.003121 -0.041960 -18.279600
0.000000 0.000000 0.000000 0.000000 0.000000 -0.000000 -2.249120 92.581400 -3.930760 88.948800 0.438465 4.422340 15.735700 0.000005 -0.000001 75.808700 86.430500 -75.631000 8.984550 -0.406207 -0.000000 -0.842123 -1.763170 0.342369 16.377300 -0.000001 -0.000001 6.848420 -2.354230 1.059330 6.456720 -0.000001 -0.000000 4.001340 -1.515710 1.057390 12.994200 -0.242716 4.980390 -84.354800 -10.575000 -61.692600 5.348090 -0.000007 -0.000001 -62.152700 -59.524800 -98.515300 24.328600 0.000019 0.000005 9.044100 6.146770 -56.071400 22.291600 -0.000001 0.000005 18.056300 5.347990 -1.317180 12.994500 -0.242716 -4.980390 93.778100 -8.942650 -66.983100 -5.348130 -0.000001 -0.000004 -37.622200 -61.451500 -77.720500 -24.328900 0.000322 -0.000009 -7.479330 -4.512420 -59.062500 -22.291500 -0.000108 -0.000004 22.169500 5.528700 -7.738240 -2.192480 -6.469440 -0.000000 -174.630000 -12.135500 -4.658400 39.081100 -0.000007 -0.000012 -0.047467 0.121339 21.364900 40.985400 -0.000006 -0.000013 -0.582879 9.150630 -62.158300 11.754300 -0.000000 0.000003 -0.000118 -0.001181 -16.622700 -2.192510 6.469440 -0.000001 177.930000 25.464300 177.438000 -39.081100 -0.002282 -0.040193 -0.024588 0.076542 20.033600 -40.985400 0.000008 0.000006 3.779900 15.755800 -63.371300 -11.754300 -0.000006 -0.000006 -0.002955 -0.040092 -18.203600
